# xmcd
#
# Track frame offsets:
#	150
#	27657
#	52497
#	77737
#	93215
#	117045
#	135507
#	165225
#	188337
#	216007
#	249442
#	279875
#
# Disc length: 3956 seconds
#
# Revision: 1
# Processed by: cddbd v1.5.1PL0 Copyright (c) Steve Scherf et al.
# Submitted via: EasyCDDAExtractor 7.0.0.1
#
DISCID=960f720c
DTITLE=April Mayjune - Peach and Papaya
DYEAR=1998
DGENRE=R&B
TTITLE0=Majore
TTITLE1=April May June
TTITLE2=New Orleans Homesick Song
TTITLE3=Shoe-Bee-Doo
TTITLE4=Mysterious and Holly
TTITLE5=Grandma´s Kitchen
TTITLE6=(Sweet) Liberty
TTITLE7=Hymn
TTITLE8=Change of Seasons
TTITLE9=Desperation
TTITLE10=Brittany
TTITLE11=Trinkersong
EXTD=
EXTT0=
EXTT1=
EXTT2=
EXTT3=
EXTT4=
EXTT5=
EXTT6=
EXTT7=
EXTT8=
EXTT9=
EXTT10=
EXTT11=
PLAYORDER=
